<svg width="20" height="25" viewBox="0 0 20 25" fill="none" xmlns="http://www.w3.org/2000/svg">
<path d="M16.7047 13.051C16.6737 9.93992 19.2417 8.44776 19.3565 8.37238C17.9133 6.26218 15.6648 5.97264 14.8646 5.93969C12.9525 5.74549 11.1319 7.06592 10.1619 7.06592C9.19394 7.06592 7.69529 5.96814 6.10978 5.9961C4.02405 6.02705 2.10156 7.2092 1.02824 9.07627C-1.13786 12.8339 0.47411 18.4027 2.5848 21.4524C3.61668 22.943 4.84726 24.6204 6.46172 24.559C8.01779 24.4976 8.60486 23.5526 10.4859 23.5526C12.367 23.5526 12.8951 24.559 14.5411 24.5275C16.2144 24.4971 17.2753 23.0084 18.2987 21.5118C19.4833 19.78 19.971 18.1031 20 18.0183C19.9636 18.0013 16.7381 16.7657 16.7047 13.051Z" fill="white"/>
<path d="M13.612 3.92135C14.4682 2.88198 15.0483 1.43775 14.8905 0C13.6549 0.0499217 12.1593 0.821213 11.2722 1.85958C10.4774 2.78114 9.78252 4.24834 9.96873 5.66013C11.3471 5.76696 12.7529 4.95873 13.612 3.92135Z" fill="white"/>
</svg>
