<svg width="30" height="30" viewBox="0 0 30 30" fill="none" xmlns="http://www.w3.org/2000/svg">
<path d="M12.22 18.9269L1 27.6082V2.62972C1 1.73651 1.72084 1 2.62972 1H20.2745C21.1677 1 21.9042 1.72084 21.9042 2.62972V28.0783" stroke="white" stroke-width="2" stroke-miterlimit="10"/>
<path d="M28 17.3755C28 17.3755 24.2234 12.1103 19.538 12.1103C14.8526 12.1103 11.4521 17.6106 11.4521 17.6106C11.4521 17.6106 15.2287 22.9071 20.1962 22.9071C25.1637 22.9071 27.5769 18.1434 27.5769 18.1434L28 17.3755Z" stroke="white" stroke-width="2" stroke-miterlimit="10"/>
<path d="M23.2234 17.4273C23.2618 17.4715 23.2968 17.5128 23.3282 17.5504C23.306 17.5859 23.2814 17.6242 23.2545 17.665C23.0992 17.9008 22.8689 18.2142 22.5699 18.5259C21.964 19.1573 21.13 19.7275 20.1021 19.7275C19.0538 19.7275 18.0935 19.1651 17.3617 18.5453C17.0019 18.2406 16.7125 17.9347 16.5133 17.705C16.4829 17.6701 16.4548 17.6369 16.4288 17.6059C16.4515 17.575 16.476 17.542 16.5023 17.5073C16.6826 17.2697 16.9449 16.9538 17.2729 16.6396C17.9431 15.9974 18.8145 15.4309 19.7731 15.4309C20.7457 15.4309 21.6692 15.9801 22.388 16.5957C22.74 16.8971 23.0257 17.1998 23.2234 17.4273Z" stroke="white"/>
<path d="M12.5961 11.1387L14.4295 9.88509L27.9843 23.8944L26.1352 25.148L12.5961 11.1387Z" fill="white"/>
</svg>
