<svg width="25" height="25" viewBox="0 0 25 25" fill="none" xmlns="http://www.w3.org/2000/svg">
<path d="M11.5118 20.6223V25C11.5118 25 25 19.7581 25 10.2534C25 0.748766 17.6747 0 11.5118 0C5.3489 0 0 5.24189 0 11.0022C0 16.7625 6.33712 20.6223 11.5118 20.6223Z" fill="white"/>
<path d="M8.23125 11.6429C8.98483 11.6429 9.59573 11.0377 9.59573 10.291C9.59573 9.54439 8.98483 8.93912 8.23125 8.93912C7.47767 8.93912 6.86677 9.54439 6.86677 10.291C6.86677 11.0377 7.47767 11.6429 8.23125 11.6429Z" fill="#231F20"/>
<path d="M12.6887 11.6429C13.4422 11.6429 14.0531 11.0377 14.0531 10.291C14.0531 9.54439 13.4422 8.93912 12.6887 8.93912C11.9351 8.93912 11.3242 9.54439 11.3242 10.291C11.3242 11.0377 11.9351 11.6429 12.6887 11.6429Z" fill="#231F20"/>
<path d="M17.1461 11.6429C17.8997 11.6429 18.5106 11.0377 18.5106 10.291C18.5106 9.54439 17.8997 8.93912 17.1461 8.93912C16.3925 8.93912 15.7816 9.54439 15.7816 10.291C15.7816 11.0377 16.3925 11.6429 17.1461 11.6429Z" fill="#231F20"/>
</svg>
