<svg width="32" height="25" viewBox="0 0 32 25" fill="none" xmlns="http://www.w3.org/2000/svg">
<path d="M1 24.0264C1 24.0264 2.08901 16.3206 10.2027 16.3206C18.3164 16.3206 19.0087 24.0264 19.0087 24.0264M31.0001 24.0264C31.0001 24.0264 29.4036 18.2689 24.1413 18.2689C18.8791 18.2689 17.7987 20.4285 17.7987 20.4285M15.7871 6.58441C15.7871 9.6686 13.2869 12.1688 10.2027 12.1688C7.11853 12.1688 4.6183 9.6686 4.6183 6.58441C4.6183 3.50023 7.11853 1 10.2027 1C13.2869 1 15.7871 3.50023 15.7871 6.58441ZM27.7933 10.2364C27.7933 12.2533 26.1582 13.8884 24.1413 13.8884C22.1244 13.8884 20.4893 12.2533 20.4893 10.2364C20.4893 8.21946 22.1244 6.58441 24.1413 6.58441C26.1582 6.58441 27.7933 8.21946 27.7933 10.2364Z" stroke="white" stroke-miterlimit="10"/>
</svg>
