<svg width="21" height="22" viewBox="0 0 21 22" fill="none" xmlns="http://www.w3.org/2000/svg">
<path d="M19.7352 8.7347H18.9031C18.2243 8.7347 17.655 8.12184 17.655 7.39443C17.655 7.02786 17.8028 6.69565 18.0655 6.44936L18.602 5.89951C19.1331 5.34965 19.1331 4.4504 18.602 3.90055L17.3812 2.63473C17.1404 2.38271 16.7845 2.23379 16.4232 2.23379C16.0619 2.23379 15.7116 2.38271 15.4652 2.63473L14.9506 3.17313C14.7043 3.45952 14.3758 3.61416 14.02 3.61416C13.3192 3.61416 12.7335 3.01848 12.7335 2.31398V1.43765C12.7335 0.66441 12.1368 0 11.3922 0H9.72802C8.98351 0 8.39227 0.658682 8.39227 1.43765V2.30825C8.39227 3.01276 7.80651 3.60844 7.10578 3.60844C6.75542 3.60844 6.43243 3.45379 6.19703 3.18459L5.66601 2.63473C5.42514 2.37699 5.0693 2.23379 4.70799 2.23379C4.34668 2.23379 3.99632 2.38271 3.74997 2.63473L2.51823 3.89482C1.99268 4.44468 1.99268 5.34392 2.51823 5.88805L3.03282 6.42645C3.30654 6.6842 3.45983 7.02786 3.45983 7.39443C3.45983 8.12757 2.89049 8.7347 2.21166 8.7347H1.37955C0.629557 8.7347 0 9.34757 0 10.1265V10.9971V11.8677C0 12.641 0.629557 13.2596 1.37955 13.2596H2.21166C2.89049 13.2596 3.45983 13.8724 3.45983 14.5998C3.45983 14.9664 3.30654 15.3101 3.03282 15.5678L2.51823 16.1005C1.99268 16.6504 1.99268 17.5496 2.51823 18.0937L3.73902 19.3653C3.9799 19.623 4.33573 19.7662 4.69704 19.7662C5.05835 19.7662 5.40872 19.6173 5.65506 19.3653L6.18608 18.8154C6.41601 18.5462 6.74447 18.3916 7.09483 18.3916C7.79556 18.3916 8.38132 18.9872 8.38132 19.6917V20.5624C8.38132 21.3356 8.97256 22 9.72255 22H11.3868C12.1313 22 12.7225 21.3413 12.7225 20.5624V19.6917C12.7225 18.9872 13.3083 18.3916 14.009 18.3916C14.3594 18.3916 14.6878 18.5519 14.9397 18.8326L15.4543 19.371C15.7006 19.623 16.051 19.7719 16.4123 19.7719C16.7736 19.7719 17.124 19.623 17.3703 19.371L18.5911 18.0995C19.1166 17.5496 19.1166 16.6504 18.5911 16.1005L18.0546 15.5506C17.7918 15.3043 17.644 14.9664 17.644 14.6056C17.644 13.8724 18.2134 13.2653 18.8922 13.2653H19.7243C20.4688 13.2653 20.9998 12.6524 20.9998 11.8735V10.9971V10.1265C21.0108 9.34757 20.4798 8.7347 19.7352 8.7347ZM14.9342 10.9971C14.9342 13.523 12.9798 15.5793 10.5547 15.5793C8.1295 15.5793 6.17513 13.523 6.17513 10.9971C6.17513 8.47123 8.1295 6.415 10.5547 6.415C12.9798 6.415 14.9342 8.47123 14.9342 10.9971Z" fill="#DADADA"/>
</svg>
