<svg width="14" height="17" viewBox="0 0 14 17" fill="none" xmlns="http://www.w3.org/2000/svg">
<path d="M0.816667 16.3333H13.1833C13.6318 16.3333 14 15.9724 14 15.5276V7.80208C14 7.35729 13.6354 7 13.1833 7H12.3958V5.87344C12.3958 4.36042 11.8052 2.67969 10.8427 1.66615C9.88385 0.652604 8.50937 0 7.00365 0C7 0 7 0 7 0H6.99635C5.49062 0 4.11615 0.652604 3.15729 1.6625C2.19479 2.67604 1.60417 4.35677 1.60417 5.86979V7H0.911458H0.816667C0.364583 7 0 7.36094 0 7.80208V15.5276C0 15.9724 0.364583 16.3333 0.816667 16.3333ZM3.53646 5.87344C3.53646 4.87813 3.8974 3.64583 4.56094 2.94583V2.9349C5.2026 2.25677 6.08854 1.85938 6.99635 1.85938H7H7.00365C7.91146 1.85938 8.7974 2.25677 9.43906 2.9349V2.94219L9.43542 2.94583C10.1026 3.64583 10.4599 4.87813 10.4599 5.87344V7H9.82187H4.17083H3.53646V5.87344Z" fill="#BDBDBD"/>
</svg>
