<svg width="22" height="23" viewBox="0 0 22 23" fill="none" xmlns="http://www.w3.org/2000/svg">
<path d="M22 11.6542C22 10.8798 21.9382 10.1012 21.8062 9.3394H11.2216V13.7262H17.2829C17.0314 15.141 16.2232 16.3926 15.0398 17.1879V20.0342H18.656C20.7795 18.0502 22 15.1201 22 11.6542Z" fill="#4285F4"/>
<path d="M11.2216 22.7843C14.2481 22.7843 16.8005 21.7756 18.6601 20.0342L15.044 17.1879C14.0379 17.8827 12.739 18.2762 11.2258 18.2762C8.29819 18.2762 5.81595 16.2712 4.92531 13.5755H1.1937V16.5098C3.09868 20.3566 6.97873 22.7843 11.2216 22.7843Z" fill="#34A853"/>
<path d="M4.92119 13.5755C4.45113 12.1607 4.45113 10.6286 4.92119 9.21382V6.27954H1.1937C-0.397901 9.49846 -0.397901 13.2908 1.1937 16.5098L4.92119 13.5755Z" fill="#FBBC04"/>
<path d="M11.2216 4.50893C12.8215 4.48381 14.3677 5.09495 15.5264 6.21675L18.7302 2.96435C16.7015 1.03049 14.009 -0.0327191 11.2216 0.000767679C6.97873 0.000767679 3.09868 2.42856 1.1937 6.27954L4.92119 9.21382C5.8077 6.51395 8.29407 4.50893 11.2216 4.50893Z" fill="#EA4335"/>
</svg>
