<svg width="26" height="24" viewBox="0 0 26 24" fill="none" xmlns="http://www.w3.org/2000/svg">
<path d="M12.6867 0.0982985L0.114698 12.0156C-0.123481 12.241 0.0340921 12.6458 0.359638 12.6458H2.46112C2.65926 12.6458 2.81995 12.8089 2.81995 13.01V23.6358C2.81995 23.8369 2.98065 24 3.17878 24H11.3726C11.5707 24 11.7314 23.8369 11.7314 23.6358V16.4305C11.7314 16.2295 11.8921 16.0664 12.0902 16.0664H13.6722C13.8703 16.0664 14.031 16.2295 14.031 16.4305V24H22.5893C22.7875 24 22.9482 23.8369 22.9482 23.6358V13.105C22.9482 12.9039 23.1088 12.7408 23.307 12.7408H25.6404C25.9665 12.7408 26.1235 12.3355 25.8848 12.1101L13.175 0.0977718C13.0372 -0.0325906 12.8235 -0.0325906 12.6857 0.0977718L12.6867 0.0982985Z" fill="#FF3B5C"/>
</svg>
