<svg width="29" height="27" viewBox="0 0 29 27" fill="none" xmlns="http://www.w3.org/2000/svg">
<path d="M27 18.0993C27 18.0993 23.8112 13.6619 19.8462 13.6619C15.8812 13.6619 13.0298 18.3017 13.0298 18.3017C13.0298 18.3017 16.2187 22.7729 20.4199 22.7729C24.621 22.7729 27 18.0993 27 18.0993Z" stroke="white" stroke-width="2" stroke-miterlimit="10"/>
<path d="M22.9052 18.1885C22.9218 18.2076 22.9376 18.226 22.9527 18.2436C22.9441 18.2569 22.9353 18.2705 22.9261 18.2845C22.7968 18.4814 22.6054 18.7427 22.3572 19.0023C21.8529 19.5299 21.1693 19.9951 20.3355 19.9951C19.4801 19.9951 18.6862 19.5346 18.0723 19.0164C17.7715 18.7625 17.5291 18.5074 17.3622 18.3159C17.3515 18.3037 17.3412 18.2918 17.3313 18.2802C17.3392 18.2695 17.3474 18.2587 17.3558 18.2476C17.506 18.0491 17.7244 17.7854 17.9971 17.5234C18.557 16.9855 19.2723 16.524 20.0486 16.524C20.8391 16.524 21.6016 16.9742 22.2056 17.4919C22.5 17.7442 22.7395 17.9978 22.9052 18.1885Z" stroke="white"/>
<mask id="path-3-inside-1_181_28" fill="white">
<path d="M13.9916 12.8183L15.5438 11.7722L26.9831 23.5996L25.4309 24.6457L13.9916 12.8183Z"/>
</mask>
<path d="M13.9916 12.8183L12.8739 11.1598L10.8949 12.4934L12.554 14.2087L13.9916 12.8183ZM15.5438 11.7722L16.9814 10.3818L15.8161 9.17694L14.4261 10.1137L15.5438 11.7722ZM26.9831 23.5996L28.1008 25.2581L30.0798 23.9245L28.4207 22.2092L26.9831 23.5996ZM25.4309 24.6457L23.9933 26.0361L25.1586 27.2409L26.5486 26.3042L25.4309 24.6457ZM15.1093 14.4768L16.6615 13.4307L14.4261 10.1137L12.8739 11.1598L15.1093 14.4768ZM14.1062 13.1626L25.5455 24.99L28.4207 22.2092L16.9814 10.3818L14.1062 13.1626ZM25.8654 21.9411L24.3132 22.9871L26.5486 26.3042L28.1008 25.2581L25.8654 21.9411ZM26.8685 23.2552L15.4292 11.4279L12.554 14.2087L23.9933 26.0361L26.8685 23.2552Z" fill="white" mask="url(#path-3-inside-1_181_28)"/>
<path d="M16.843 21.9293C14.9195 23.7683 13.4517 25 13.4517 25C13.4517 25 1 15.889 1 8.85334C1 1.81765 6.6353 0.990912 8.92992 2.12135C10.4653 2.88059 13.2154 5.69825 13.2154 5.69825C13.2154 5.69825 16.1343 1.76703 19.6437 1.76703C23.1531 1.76703 26.072 5.31019 26.072 8.80272C26.072 12.2953 24.756 12.6875 23.44 14.6109" stroke="white" stroke-width="2" stroke-miterlimit="10"/>
</svg>
