<svg width="28" height="28" viewBox="0 0 28 28" fill="none" xmlns="http://www.w3.org/2000/svg">
<path d="M26.4354 16.2789C26.7747 16.2789 27.0501 16.0036 27.0501 15.6642C27.0501 15.3249 26.7747 15.0496 26.4354 15.0496H22.9163V11.4822H26.4351C26.7744 11.4822 27.0497 11.2068 27.0497 10.8675C27.0497 10.5282 26.7744 10.2528 26.4351 10.2528H22.3016C21.9623 10.2528 21.6869 10.5282 21.6869 10.8675V20.461C21.6869 20.8003 21.9623 21.0756 22.3016 21.0756H26.4351C26.7744 21.0756 27.0497 20.8003 27.0497 20.461C27.0497 20.1217 26.7744 19.8463 26.4351 19.8463H22.9163V16.2789H26.4354Z" fill="white"/>
<path d="M8.25537 10.8675V20.461C8.25537 20.8003 8.53075 21.0756 8.87005 21.0756C9.20936 21.0756 9.48474 20.8003 9.48474 20.461V10.8675C9.48474 10.5282 9.20936 10.2528 8.87005 10.2528C8.53075 10.2528 8.25537 10.5279 8.25537 10.8675Z" fill="white"/>
<path d="M6.19063 20.2237C6.19063 19.8844 5.91525 19.609 5.57594 19.609H2.14783V11.1048C2.14783 10.7655 1.87245 10.4901 1.53314 10.4901C1.19384 10.4901 0.918457 10.7655 0.918457 11.1048V20.2234C0.918457 20.5627 1.19384 20.8381 1.53314 20.8381H5.57564C5.91525 20.8384 6.19063 20.563 6.19063 20.2237Z" fill="white"/>
<path d="M18.5517 10.6613L15.7155 18.628L12.8794 10.6613C12.7656 10.3414 12.4134 10.1748 12.0941 10.2885C11.7741 10.4025 11.6076 10.7541 11.7213 11.0738L15.1368 20.6672C15.2238 20.9121 15.4558 21.0756 15.7158 21.0756C15.9758 21.0756 16.2079 20.9121 16.2949 20.6672L19.7098 11.0738C19.8238 10.7538 19.6566 10.4022 19.337 10.2885C19.017 10.1748 18.6651 10.3414 18.5517 10.6613Z" fill="white"/>
<path d="M2.40877 8.38973C2.74439 8.43398 3.05388 8.19641 3.09783 7.85987C3.32988 6.0828 4.85645 4.74279 6.64857 4.74279H21.3202C23.1124 4.74279 24.6389 6.0828 24.871 7.85956C24.9116 8.16905 25.1756 8.39464 25.4795 8.39464C25.5063 8.39464 25.533 8.39311 25.5601 8.38942C25.8969 8.34547 26.1339 8.0369 26.0902 7.70035C25.7786 5.31322 23.728 3.5131 21.3202 3.5131H15.5517L18.0274 1.21878C18.2766 0.987967 18.2911 0.599177 18.0602 0.350229C17.8291 0.100973 17.44 0.086835 17.1917 0.317343L13.9843 3.29028L10.7768 0.31765C10.5276 0.0865276 10.1391 0.101895 9.90826 0.350536C9.67745 0.599484 9.6922 0.988274 9.94115 1.21909L12.4168 3.51341H6.64827C4.24084 3.51341 2.19055 5.31352 1.8786 7.70035C1.83496 8.03751 2.07192 8.34608 2.40877 8.38973Z" fill="white"/>
<path d="M25.5597 22.9385C25.226 22.8939 24.9146 23.1318 24.8707 23.4686C24.6386 25.2454 23.1124 26.5854 21.3199 26.5854H6.64827C4.85615 26.5854 3.32988 25.2454 3.09783 23.4683C3.05388 23.1315 2.74408 22.896 2.40877 22.9382C2.07192 22.9824 1.83496 23.2907 1.8786 23.6272C2.19055 26.0147 4.24115 27.8148 6.64827 27.8148H21.3199C23.7277 27.8148 25.7783 26.0147 26.0899 23.6275C26.1336 23.291 25.8966 22.9824 25.5597 22.9385Z" fill="white"/>
</svg>
