<svg width="32" height="21" viewBox="0 0 32 21" fill="none" xmlns="http://www.w3.org/2000/svg">
<path d="M1 16.9439V20.1004C1 20.3211 1.17861 20.4997 1.39932 20.4997H22.4265C22.6472 20.4997 22.8258 20.3211 22.8258 20.1004V13.0293C22.8258 12.9548 22.9192 12.921 22.967 12.9779L30.6007 17.973C30.8214 17.973 31 17.7944 31 17.5737V3.44414C31 3.22344 30.8214 3.04482 30.6007 3.04482L22.8854 8.47049C22.8397 8.53208 22.7411 8.49974 22.7411 8.42275V1.39932C22.7411 1.17861 22.5625 1 22.3418 1H1.39932C1.17861 1 1 1.17861 1 1.39932V16.9444V16.9439Z" stroke="white" stroke-miterlimit="10"/>
<path d="M9.79266 6.80907V14.547L16 10.678L9.79266 6.80907Z" fill="white"/>
</svg>
