<svg width="30" height="26" viewBox="0 0 30 26" fill="none" xmlns="http://www.w3.org/2000/svg">
<path d="M14.9508 25.4304C14.5553 25.4314 14.1635 25.3541 13.7979 25.2031C13.4324 25.0521 13.1003 24.8303 12.8208 24.5504L2.52079 14.2504C1.70713 13.4279 1.06528 12.4517 0.632638 11.3787C0.199995 10.3057 -0.0147917 9.15727 0.000791025 8.00041C0.00863074 6.94025 0.22555 5.89205 0.639123 4.91585C1.0527 3.93966 1.6548 3.05465 2.41094 2.31151C3.16708 1.56837 4.0624 0.981714 5.04563 0.585137C6.02885 0.18856 7.08065 -0.0101431 8.14079 0.000408903C9.2199 -0.0104609 10.2902 0.195485 11.2882 0.606032C12.2863 1.01658 13.1917 1.62337 13.9508 2.39041L14.9508 3.39041L15.7708 2.57041C17.1867 1.11698 19.0814 0.225922 21.1039 0.0622833C23.1264 -0.101355 25.1396 0.473512 26.7708 1.68041C27.6993 2.39546 28.4648 3.30013 29.0164 4.33417C29.5679 5.36821 29.8928 6.5079 29.9695 7.67733C30.0461 8.84676 29.8727 10.0191 29.4608 11.1163C29.049 12.2135 28.4081 13.2103 27.5808 14.0404L17.0808 24.5504C16.8013 24.8303 16.4692 25.0521 16.1037 25.2031C15.7381 25.3541 15.3463 25.4314 14.9508 25.4304Z" fill="white"/>
</svg>
