<svg width="6" height="26" viewBox="0 0 6 26" fill="none" xmlns="http://www.w3.org/2000/svg">
<path d="M6 3C6 4.65685 4.65685 6 3 6C1.34315 6 0 4.65685 0 3C0 1.34315 1.34315 0 3 0C4.65685 0 6 1.34315 6 3Z" fill="white"/>
<path d="M6 12.75C6 14.4069 4.65685 15.75 3 15.75C1.34315 15.75 0 14.4069 0 12.75C0 11.0931 1.34315 9.75 3 9.75C4.65685 9.75 6 11.0931 6 12.75Z" fill="white"/>
<path d="M6 22.5C6 24.1569 4.65685 25.5 3 25.5C1.34315 25.5 0 24.1569 0 22.5C0 20.8431 1.34315 19.5 3 19.5C4.65685 19.5 6 20.8431 6 22.5Z" fill="white"/>
</svg>
