<svg width="19" height="19" viewBox="0 0 19 19" fill="none" xmlns="http://www.w3.org/2000/svg">
<path d="M11.2 11.2V14.6M11.2 18H14.6V11.2M14.6 12.9H18M18 16.3V18M1.85 1H6.95C7.41944 1 7.8 1.38056 7.8 1.85V6.95C7.8 7.41944 7.41944 7.8 6.95 7.8H1.85C1.38056 7.8 1 7.41944 1 6.95V1.85C1 1.38056 1.38056 1 1.85 1ZM1.85 11.2H6.95C7.41944 11.2 7.8 11.5806 7.8 12.05V17.15C7.8 17.6194 7.41944 18 6.95 18H1.85C1.38056 18 1 17.6194 1 17.15V12.05C1 11.5806 1.38056 11.2 1.85 11.2ZM12.05 1H17.15C17.6194 1 18 1.38056 18 1.85V6.95C18 7.41944 17.6194 7.8 17.15 7.8H12.05C11.5806 7.8 11.2 7.41944 11.2 6.95V1.85C11.2 1.38056 11.5806 1 12.05 1Z" stroke="white" stroke-width="2" stroke-linecap="round" stroke-linejoin="round"/>
</svg>
