<svg width="30" height="30" viewBox="0 0 30 30" fill="none" xmlns="http://www.w3.org/2000/svg">
<path d="M21.9141 18.2812C23.0859 16.4375 23.7734 14.25 23.7734 11.8984C23.7734 5.32813 18.4531 0 11.8906 0C5.32031 0 0 5.32813 0 11.8984C0 18.4688 5.32031 23.7969 11.8828 23.7969C14.2656 23.7969 16.4844 23.0938 18.3438 21.8906C18.6557 21.6736 19.0784 21.7112 19.3471 21.98L26.027 28.6598C26.7652 29.3981 27.9638 29.3928 28.6955 28.648C29.4179 27.9128 29.413 26.7327 28.6845 26.0036L22.0029 19.3159C21.7258 19.0385 21.6883 18.6019 21.9141 18.2812ZM18.5469 5.25C20.3203 7.02344 21.2969 9.38281 21.2969 11.8906C21.2969 14.3984 20.3203 16.7578 18.5469 18.5312C16.7734 20.3047 14.4141 21.2812 11.9062 21.2812C9.39844 21.2812 7.03906 20.3047 5.26562 18.5312C3.49219 16.7578 2.51562 14.3984 2.51562 11.8906C2.51562 9.38281 3.49219 7.02344 5.26562 5.25C7.03906 3.47656 9.39844 2.5 11.9062 2.5C14.4141 2.5 16.7734 3.47656 18.5469 5.25Z" fill="#DADADA"/>
</svg>
