<svg width="167" height="49" viewBox="0 0 167 49" fill="none" xmlns="http://www.w3.org/2000/svg">
<path d="M31.914 17.688C35.056 19.9485 38.905 21.2785 43.0621 21.2785V13.2273C42.2754 13.2274 41.4907 13.1449 40.7209 12.9807V19.3182C36.5641 19.3182 32.7156 17.9882 29.5729 15.7279V32.1582C29.5729 40.3775 22.9526 47.04 14.7867 47.04C11.7398 47.04 8.90778 46.1129 6.55525 44.5229C9.24028 47.2861 12.9848 49.0002 17.1274 49.0002C25.2938 49.0002 31.9144 42.3376 31.9144 34.118L31.914 17.688ZM34.8021 9.56527C33.1964 7.7997 32.1422 5.51803 31.914 2.99554V1.95997H29.6954C30.2539 5.16606 32.1587 7.90514 34.8021 9.56527ZM11.7202 38.2157C10.8231 37.0318 10.3383 35.5836 10.3405 34.0945C10.3405 30.3353 13.3685 27.2873 17.1043 27.2873C17.8005 27.2871 18.4926 27.3944 19.1561 27.6063V19.3751C18.3807 19.2681 17.5981 19.2227 16.8159 19.2394V25.6461C16.1519 25.4342 15.4595 25.3266 14.7631 25.3273C11.0273 25.3273 7.99947 28.375 7.99947 32.1346C7.99947 34.793 9.51299 37.0945 11.7202 38.2157Z" fill="#FF004F"/>
<path d="M29.5729 15.7279C32.7156 17.9882 36.5641 19.3182 40.7209 19.3182V12.9807C38.4007 12.4833 36.3465 11.2627 34.8021 9.56527C32.1587 7.90514 30.2539 5.16606 29.6954 1.95997H23.8678V34.1177C23.8546 37.8666 20.8317 40.9021 17.104 40.9021C14.9073 40.9021 12.9562 39.8482 11.7202 38.2157C9.51299 37.0945 7.99947 34.793 7.99947 32.1346C7.99947 28.375 11.0273 25.3273 14.7631 25.3273C15.4789 25.3273 16.1688 25.4395 16.8159 25.6461V19.2394C8.79339 19.4062 2.34101 26.0038 2.34101 34.1178C2.34101 38.1683 3.94755 41.84 6.55525 44.5229C8.90778 46.1129 11.7398 47.04 14.7867 47.04C22.9526 47.04 29.5729 40.3775 29.5729 32.1582V15.7279Z" fill="white"/>
<path d="M40.7209 12.9807V11.2669C38.6286 11.2701 36.5773 10.6806 34.8021 9.56527C36.3736 11.2969 38.4429 12.4909 40.7209 12.9807ZM29.6954 1.95997C29.6422 1.65357 29.6013 1.34516 29.5729 1.03557V0H21.5265V32.158C21.5136 35.9064 18.4909 38.942 14.7628 38.942C13.6683 38.942 12.6354 38.6803 11.7202 38.2157C12.9562 39.8482 14.9073 40.9021 17.104 40.9021C20.8317 40.9021 23.8546 37.8666 23.8678 34.1177V1.95997H29.6954ZM16.8159 19.2394V17.4153C16.1436 17.3228 15.4657 17.2764 14.787 17.2767C6.62021 17.2765 0 23.9394 0 32.158C0 37.3106 2.60153 41.8518 6.55525 44.5229C3.94755 41.84 2.34101 38.1683 2.34101 34.1178C2.34101 26.0038 8.79339 19.4062 16.8159 19.2394Z" fill="#00F2EA"/>
<path d="M133.955 40.3025C139.798 40.3025 144.535 35.5709 144.535 29.7349C144.535 23.8991 139.798 19.1667 133.955 19.1667H132.361C138.204 19.1667 142.941 23.8989 142.941 29.7349C142.941 35.5709 138.204 40.3025 132.361 40.3025H133.955Z" fill="#FF004F"/>
<path d="M132.217 19.1667H130.623C124.78 19.1667 120.042 23.8989 120.042 29.7349C120.042 35.5709 124.78 40.3025 130.623 40.3025H132.217C126.373 40.3025 121.636 35.5709 121.636 29.7349C121.636 23.8991 126.373 19.1667 132.217 19.1667Z" fill="#00F2EA"/>
<path d="M51.7804 14.3903V19.7469H58.0113V40.1578H64.2447V19.8915H69.3169L71.056 14.3905L51.7804 14.3903ZM102.796 14.3903V19.7469H109.027V40.1578H115.26V19.8915H120.332L122.071 14.3905L102.796 14.3903ZM72.2165 17.4301C72.2165 15.7516 73.5769 14.3903 75.2576 14.3903C76.9397 14.3903 78.3016 15.7516 78.3016 17.4301C78.3016 19.1087 76.9406 20.47 75.2576 20.47C73.5769 20.4691 72.2165 19.1087 72.2165 17.4301ZM72.2165 22.642H78.3016V40.1578H72.2165V22.642ZM80.9108 14.3903V40.1577H86.9983V33.4993L88.8826 31.7606L94.8239 40.3023H101.345L92.7937 27.853L100.475 20.3245H93.0841L86.9983 26.4042V14.3903H80.9108ZM146.563 14.3903V40.1577H152.651V33.4993L154.535 31.7606L160.478 40.3023H167L158.448 27.853L166.13 20.3245H158.739L152.651 26.4042V14.3903H146.563Z" fill="white"/>
<path d="M132.361 40.3025C138.204 40.3025 142.941 35.5709 142.941 29.7349C142.941 23.8989 138.204 19.1667 132.361 19.1667H132.217C126.373 19.1667 121.636 23.8991 121.636 29.7349C121.636 35.5709 126.373 40.3025 132.217 40.3025H132.361ZM127.143 29.7349C127.143 26.8961 129.448 24.5966 132.29 24.5966C135.129 24.5966 137.434 26.8961 137.434 29.7349C137.434 32.5737 135.129 34.8746 132.29 34.8746C129.448 34.8741 127.143 32.5737 127.143 29.7349Z" fill="white"/>
</svg>
